<?xml version="1.0" encoding="UTF-8" standalone="no"?>
<!DOCTYPE svg PUBLIC "-//W3C//DTD SVG 1.1//EN" "http://www.w3.org/Graphics/SVG/1.1/DTD/svg11.dtd">
<svg width="100%" height="100%" viewBox="0 0 18 18" version="1.1" xmlns="http://www.w3.org/2000/svg" xmlns:xlink="http://www.w3.org/1999/xlink" xml:space="preserve" xmlns:serif="http://www.serif.com/" style="fill-rule:evenodd;clip-rule:evenodd;stroke-linejoin:round;stroke-miterlimit:2;">
    <g transform="matrix(0.0351562,0,0,0.0351562,0,0)">
        <path d="M160,256L96,256L96,192L160,192L160,256ZM288,192L224,192L224,256L288,256L288,192ZM416,192L352,192L352,256L416,256L416,192ZM160,288L96,288L96,352L160,352L160,288ZM288,288L224,288L224,352L288,352L288,288ZM416,288L352,288L352,352L416,352L416,288ZM160,384L96,384L96,448L160,448L160,384ZM288,384L224,384L224,448L288,448L288,384ZM128,96C145.672,96 160,81.687 160,64L160,32C160,14.312 145.672,0 128,0C110.328,0 96,14.313 96,32L96,64C96,81.688 110.328,96 128,96ZM512,64L512,512L0,512L0,64L80,64C80,90.469 101.531,112 128,112C154.469,112 176,90.469 176,64L336,64C336,90.469 357.531,112 384,112C410.469,112 432,90.469 432,64L512,64ZM480,160L32,160L32,480L480,480L480,160ZM384,96C401.688,96 416,81.687 416,64L416,32C416,14.312 401.688,0 384,0C366.312,0 352,14.313 352,32L352,64C352,81.688 366.312,96 384,96Z" style="fill-rule:nonzero;" fill="#172C66"/>
    </g>
</svg>
