<?xml version="1.0" encoding="UTF-8" standalone="no"?>
<!DOCTYPE svg PUBLIC "-//W3C//DTD SVG 1.1//EN" "http://www.w3.org/Graphics/SVG/1.1/DTD/svg11.dtd">
<svg width="100%" height="100%" viewBox="0 0 18 18" version="1.1" xmlns="http://www.w3.org/2000/svg" xmlns:xlink="http://www.w3.org/1999/xlink" xml:space="preserve" xmlns:serif="http://www.serif.com/" style="fill-rule:evenodd;clip-rule:evenodd;stroke-linejoin:round;stroke-miterlimit:2;">
    <g transform="matrix(1.12496,0,0,1.12496,0.000281241,-0.00337489)">
        <g id="clock">
            <g transform="matrix(0.5,0,0,0.5,0,0.0015)">
                <path d="M23,15.004L17,15.004L17,8.002C17,7.449 16.552,7.002 16,7.002C15.448,7.002 15,7.449 15,8.002L15,16.002C15,16.555 15.448,17.002 16,17.002L23,17.002C23.553,17.002 24,16.555 24,16.002C24,15.452 23.553,15.004 23,15.004Z" style="fill:rgb(245,130,174);fill-rule:nonzero;"/>
            </g>
            <g transform="matrix(0.5,0,0,0.5,0,0.0015)">
                <path d="M16,0.003C7.163,0.003 0,7.166 0,16.003C0,24.84 7.163,32.004 16,32.004C24.837,32.004 32,24.84 32,16.003C32,7.166 24.837,0.003 16,0.003ZM16,29.004C8.832,29.004 3,23.172 3,16.003C3,8.835 8.832,3.003 16,3.003C23.168,3.003 29,8.835 29,16.003C29,23.172 23.168,29.004 16,29.004Z" style="fill:rgb(23,44,102);fill-rule:nonzero;"/>
            </g>
        </g>
    </g>
</svg>
